<?xml version="1.0" standalone="no"?>
<!DOCTYPE svg PUBLIC "-//W3C//DTD SVG 20010904//EN"
 "http://www.w3.org/TR/2001/REC-SVG-20010904/DTD/svg10.dtd">
<svg version="1.0" xmlns="http://www.w3.org/2000/svg"
 width="676.000000pt" height="676.000000pt" viewBox="0 0 676.000000 676.000000"
 preserveAspectRatio="xMidYMid meet">
<metadata>
Created by potrace 1.11, written by Peter Selinger 2001-2013
</metadata>
<g transform="translate(0.000000,676.000000) scale(0.100000,-0.100000)"
fill="#000000" stroke="none">
<path d="M4680 6737 c-14 -6 -28 -15 -31 -20 -3 -5 -9 -8 -13 -8 -17 3 -26 0
-38 -11 -7 -7 -26 -19 -41 -27 -15 -8 -45 -31 -67 -50 -22 -20 -43 -37 -49
-38 -30 -7 -47 81 -22 111 39 47 -67 -31 -130 -96 -37 -37 -73 -68 -81 -68
-21 0 -41 51 -35 89 7 41 -3 39 -47 -9 -20 -22 -36 -37 -36 -34 0 3 -12 -9
-27 -28 -41 -48 -59 -70 -88 -103 l-26 -30 -18 24 c-11 14 -17 30 -15 35 2 6
0 18 -6 26 -7 12 -20 3 -65 -45 -31 -33 -61 -69 -68 -81 -7 -12 -24 -40 -39
-62 -15 -23 -29 -47 -30 -54 -2 -7 -5 -15 -8 -18 -14 -12 -70 -142 -65 -150 3
-5 1 -11 -4 -15 -12 -7 -29 -62 -38 -120 -11 -71 -5 -168 15 -219 18 -46 115
-166 135 -166 5 0 21 -9 37 -20 15 -11 30 -17 34 -13 3 3 6 1 6 -6 0 -7 27 9
60 35 33 26 60 51 60 55 0 5 3 8 8 7 6 -2 74 44 92 62 3 3 17 11 31 18 15 8
38 25 52 38 15 14 28 24 29 23 3 -2 86 46 135 78 43 29 92 54 97 51 2 -2 12 4
22 12 11 9 37 25 59 35 22 11 46 27 53 35 11 12 12 12 6 1 -5 -9 4 -7 22 6 17
12 42 25 57 28 15 4 27 11 27 16 0 5 4 9 10 9 9 0 109 42 141 60 9 4 54 24
100 43 46 18 93 38 104 42 11 5 22 9 25 10 3 1 12 4 20 8 43 17 113 37 117 33
8 -8 -7 -26 -23 -26 -8 0 -14 -5 -14 -11 0 -5 -4 -8 -9 -4 -5 3 -17 -2 -25
-11 -9 -8 -16 -12 -16 -9 0 4 -15 -2 -32 -13 -18 -11 -55 -32 -83 -47 -27 -15
-54 -30 -60 -33 -5 -4 -13 -7 -17 -7 -4 0 -16 -7 -26 -15 -10 -8 -35 -24 -55
-34 -20 -11 -37 -23 -37 -28 0 -4 -3 -7 -7 -6 -5 2 -34 -13 -66 -32 -32 -19
-67 -39 -78 -45 -10 -5 -19 -13 -19 -17 0 -5 -5 -8 -11 -8 -11 0 -79 -48 -91
-65 -4 -5 -8 -6 -8 -2 0 11 -90 -54 -90 -65 0 -5 -4 -7 -8 -4 -5 3 -26 -9 -48
-27 -21 -17 -43 -35 -49 -40 -71 -54 -89 -67 -97 -67 -5 0 -6 -4 -3 -10 3 -5
0 -10 -8 -10 -8 0 -29 -16 -46 -35 -17 -20 -31 -33 -31 -29 0 4 -33 -27 -74
-69 -79 -81 -82 -92 -49 -144 8 -12 14 -24 14 -27 -2 -16 1 -23 22 -46 13 -14
24 -28 25 -33 3 -17 58 -77 70 -77 6 0 12 -8 12 -17 0 -9 3 -14 6 -10 3 3 15
-3 27 -13 11 -11 24 -17 29 -14 4 3 8 1 8 -5 0 -10 79 -51 105 -55 5 -1 16 -5
22 -9 12 -8 38 -15 73 -22 8 -1 22 -5 30 -8 77 -32 383 -66 396 -45 3 4 12 4
22 1 13 -4 13 -2 -3 10 -11 9 -26 17 -32 17 -7 0 -20 12 -30 26 -16 25 -16 27
3 37 10 6 44 12 74 13 48 3 75 6 155 18 81 13 151 46 97 46 -10 0 -27 7 -38
15 -12 8 -23 12 -26 10 -2 -2 -4 4 -5 15 -1 15 11 23 55 36 31 9 64 17 72 19
24 5 124 44 166 65 l39 19 -35 2 c-49 3 -52 3 -77 17 -26 14 -30 32 -8 32 8 0
15 5 15 12 0 6 3 9 6 5 7 -7 157 71 162 84 2 5 8 7 13 3 5 -3 12 2 15 10 3 9
11 16 18 16 10 0 66 43 66 51 0 2 -17 5 -38 5 -82 3 -91 6 -79 31 5 12 13 21
16 20 10 -2 53 24 106 66 56 44 125 105 125 110 0 2 -19 2 -42 0 -58 -6 -87 3
-85 26 0 11 4 19 7 18 11 -4 120 99 120 113 0 5 5 9 12 7 6 -1 17 9 25 23 7
14 13 21 13 16 0 -5 10 3 21 18 24 30 20 43 -8 28 -22 -12 -111 -8 -124 5 -11
11 17 43 104 116 31 27 57 55 57 63 0 8 4 13 9 10 4 -3 13 6 20 20 15 33 15
33 -16 27 -30 -5 -123 -10 -123 -6 0 1 5 15 11 30 6 15 16 39 21 53 21 54 43
96 63 125 12 17 24 35 28 41 4 7 -36 11 -126 11 -154 1 -189 5 -195 23 -3 7 0
10 6 6 6 -3 13 3 17 14 3 11 13 20 21 20 8 0 13 4 9 9 -3 5 5 13 17 17 22 7
22 7 3 14 -23 8 -166 5 -210 -5 -16 -4 -36 -8 -42 -8 -7 0 -13 -4 -13 -9 0 -5
-4 -6 -10 -3 -5 3 -15 3 -22 -1 -22 -14 -68 -14 -69 -1 -1 6 -2 19 -3 27 -1
17 29 52 59 68 17 9 15 10 -15 7 -19 -2 -35 -4 -35 -5 0 -1 -15 -3 -34 -6 -19
-2 -72 -17 -118 -33 -73 -25 -86 -27 -98 -14 -13 12 -12 19 7 53 13 21 25 37
28 35 3 -1 11 4 19 12 13 14 10 15 -25 9 -21 -4 -43 -12 -49 -16 -5 -5 -13 -9
-18 -9 -42 -4 -177 -65 -177 -80 0 -5 -8 -8 -17 -7 -38 3 -32 69 9 114 24 25
23 25 -12 9z"/>
<path d="M1870 6736 c0 -3 16 -20 36 -39 20 -19 38 -46 39 -61 3 -22 -1 -26
-22 -26 -13 0 -33 5 -43 10 -10 6 -30 11 -44 12 -15 1 -26 5 -26 9 0 7 -60 20
-150 32 -32 5 -33 4 -15 -10 11 -8 26 -18 33 -22 7 -4 14 -22 17 -40 5 -39
-10 -47 -58 -32 -19 7 -44 14 -56 16 -11 3 -31 8 -43 11 -34 8 -170 12 -196 5
-23 -6 -23 -6 7 -32 17 -15 33 -24 37 -20 4 3 4 1 0 -6 -3 -6 -2 -14 4 -18 33
-20 -27 -29 -209 -28 l-113 0 23 -19 c13 -11 18 -17 11 -13 -8 4 0 -12 17 -35
17 -24 31 -49 31 -57 0 -7 5 -13 12 -13 6 0 9 -3 5 -6 -3 -4 0 -21 7 -38 7
-17 16 -43 19 -57 6 -24 5 -25 -31 -23 -20 2 -54 6 -75 8 l-38 6 17 -29 c17
-29 84 -106 84 -97 0 2 12 -8 28 -23 15 -15 36 -33 48 -41 30 -21 41 -60 17
-62 -62 -5 -109 -3 -114 5 -4 5 -13 7 -20 5 -9 -3 26 -45 97 -116 61 -62 114
-109 118 -105 3 3 6 1 6 -6 0 -18 -39 -29 -93 -27 l-47 2 32 -33 c17 -18 33
-31 35 -29 2 2 21 -14 43 -35 22 -22 44 -39 49 -39 5 0 16 -7 24 -15 8 -8 21
-16 28 -17 14 -3 53 -38 47 -42 -18 -16 -52 -24 -91 -22 -25 1 -44 -1 -41 -6
3 -4 12 -8 20 -8 8 0 12 -4 9 -10 -3 -5 0 -10 8 -10 8 0 22 -9 32 -20 10 -11
24 -20 30 -20 7 0 18 -7 25 -15 7 -8 16 -12 21 -9 5 3 9 1 9 -3 0 -5 33 -25
73 -44 39 -19 75 -38 79 -43 8 -12 0 -32 -15 -34 -29 -3 -92 -14 -96 -17 -2
-2 14 -11 35 -20 22 -9 50 -22 64 -28 14 -6 30 -11 35 -12 6 0 15 -3 20 -7 14
-9 127 -39 153 -40 21 -2 13 -37 -13 -54 -14 -9 -36 -17 -49 -18 -37 -2 -19
-12 52 -31 62 -16 117 -23 218 -29 28 -2 59 -8 70 -14 17 -10 16 -13 -20 -46
-20 -20 -41 -34 -46 -31 -5 3 -11 2 -14 -3 -5 -8 6 -10 94 -13 56 -2 170 8
212 17 13 3 42 10 65 14 69 15 234 72 248 87 8 7 17 13 20 13 26 -3 171 120
177 150 2 8 13 26 26 40 12 13 22 32 22 40 0 9 4 20 9 26 5 5 12 23 15 40 7
29 1 37 -110 143 -65 61 -123 111 -131 111 -7 0 -13 4 -13 8 0 10 -131 109
-144 110 -5 0 -13 7 -18 16 -5 9 -13 16 -19 16 -5 0 -22 11 -37 25 -15 14 -39
31 -54 38 -16 6 -28 16 -28 20 0 4 -13 13 -30 18 -16 6 -30 15 -30 20 0 5 -5
9 -10 9 -6 0 -23 8 -38 19 -41 28 -153 96 -192 117 -19 11 -37 21 -40 24 -3 3
-18 12 -35 20 -16 8 -52 28 -80 44 -27 15 -56 29 -63 30 -8 2 -17 8 -22 15 -4
8 -13 10 -19 7 -6 -4 -11 -3 -11 2 0 5 -11 15 -25 22 -33 18 -32 34 2 25 15
-3 32 -7 38 -8 5 -1 16 -8 23 -14 7 -7 19 -13 26 -13 8 0 39 -11 70 -25 31
-14 56 -22 56 -20 0 3 11 -2 24 -11 14 -8 27 -15 31 -15 3 1 19 -6 35 -14 17
-9 30 -12 30 -9 0 4 8 0 18 -8 9 -9 35 -22 57 -29 22 -8 46 -20 53 -26 7 -7
18 -13 23 -13 16 0 24 -3 37 -17 8 -7 18 -11 23 -8 5 4 9 2 9 -3 0 -4 21 -18
48 -30 26 -12 70 -35 97 -51 28 -16 53 -27 58 -24 4 2 7 0 7 -4 0 -13 56 -43
65 -35 5 4 5 1 1 -5 -6 -12 0 -15 20 -12 4 0 10 -3 13 -8 10 -14 185 -128 193
-126 4 2 12 -6 18 -17 6 -11 15 -20 21 -20 5 0 15 -5 22 -10 48 -41 66 -55 97
-79 19 -14 40 -32 46 -40 9 -11 13 -10 27 3 9 9 19 17 22 16 20 -1 28 3 54 29
16 16 32 27 35 24 3 -3 11 6 17 20 7 15 16 24 20 21 5 -3 9 2 9 10 0 9 4 16 8
16 10 0 39 60 49 100 9 34 8 178 -1 215 -5 17 -9 35 -10 40 -1 6 -5 16 -9 23
-5 6 -6 12 -2 12 3 0 0 10 -7 23 -7 12 -13 24 -13 27 -9 37 -19 60 -26 60 -5
0 -8 3 -7 8 3 12 -13 52 -21 52 -5 0 -11 12 -14 28 -3 15 -18 39 -32 54 -14
15 -26 31 -26 35 0 5 -9 18 -19 31 -11 12 -20 26 -20 31 0 5 -3 11 -7 13 -5 2
-27 24 -50 50 -24 26 -44 43 -44 38 -2 -17 -5 -24 -22 -64 l-17 -39 -25 27
c-14 15 -25 31 -25 35 0 5 -16 23 -35 40 -20 17 -33 31 -30 31 2 0 -17 22 -43
49 -26 27 -49 47 -51 45 -2 -2 -10 4 -18 14 -8 9 -11 11 -7 3 18 -35 -4 -121
-32 -121 -15 0 -64 46 -64 60 0 5 -5 12 -12 16 -7 5 -8 3 -3 -6 5 -9 4 -11 -3
-6 -7 4 -12 13 -12 19 -1 13 -80 74 -107 83 -11 4 -14 3 -7 -3 19 -15 5 -113
-17 -113 -5 0 -26 15 -46 33 -44 39 -134 98 -147 96 -5 0 -12 4 -15 9 -7 10
-51 26 -51 18 0 -2 7 -12 16 -21 22 -22 29 -78 11 -93 -11 -9 -24 -5 -63 19
-27 17 -53 32 -59 33 -5 2 -27 10 -47 19 -21 8 -52 18 -70 22 -47 8 -52 10
-65 18 -7 5 -13 6 -13 3z"/>
<path d="M3409 4926 c-2 -2 -38 -7 -79 -10 -41 -3 -82 -7 -90 -9 -8 -2 -32 -7
-52 -12 -21 -4 -38 -11 -38 -17 0 -5 -4 -7 -10 -3 -18 11 -180 -68 -268 -130
-31 -22 -140 -132 -156 -156 -32 -51 -41 -137 -19 -190 8 -22 19 -39 24 -39 5
0 8 -3 8 -7 -3 -20 3 -32 30 -59 39 -40 93 -80 103 -77 4 2 8 0 8 -5 0 -13
130 -73 142 -66 4 3 8 1 8 -4 0 -8 107 -43 180 -58 72 -15 372 -22 425 -10 17
4 44 9 60 12 17 3 39 7 50 9 11 2 34 7 50 10 17 3 80 30 142 60 98 48 119 63
162 114 58 71 74 114 68 181 -5 51 -26 110 -39 110 -5 0 -8 6 -8 13 0 16 -126
136 -186 178 -83 57 -224 120 -289 130 -5 1 -20 5 -33 10 -12 5 -57 11 -100
15 -42 3 -80 8 -83 10 -3 2 -8 2 -10 0z"/>
<path d="M2197 4764 c-1 -1 -22 -5 -47 -8 -49 -6 -158 -36 -205 -57 -16 -7
-32 -13 -35 -14 -45 -16 -170 -93 -170 -106 0 -5 -3 -8 -8 -7 -9 3 -63 -38
-58 -43 2 -2 -2 -10 -10 -17 -8 -7 -14 -10 -14 -7 0 15 -67 -68 -120 -148 -48
-72 -92 -161 -104 -212 -2 -5 -8 -23 -15 -39 -6 -16 -10 -35 -7 -42 2 -7 2
-15 -2 -18 -3 -4 -7 -12 -8 -19 -1 -7 -5 -27 -8 -45 -4 -17 -7 -69 -8 -113 -2
-99 8 -108 87 -85 69 20 195 90 217 121 4 6 8 6 8 2 0 -12 34 9 143 91 119 90
141 108 180 144 15 15 29 26 31 25 2 -1 34 25 71 58 37 33 77 68 89 79 12 10
20 22 18 27 -1 5 2 8 7 7 17 -5 218 198 207 209 -2 3 7 16 22 28 15 13 35 40
46 62 10 21 22 45 27 54 10 21 -9 48 -36 53 -86 16 -121 19 -203 21 -51 1 -93
0 -95 -1z"/>
<path d="M4375 4762 c-2 -3 -19 -6 -37 -8 -34 -4 -71 -11 -75 -14 -4 -3 -20
-7 -33 -9 -13 -1 -3 -46 19 -85 15 -29 27 -44 70 -95 12 -13 21 -27 21 -31 0
-4 11 -13 25 -20 13 -7 22 -17 19 -22 -3 -4 3 -8 12 -8 10 0 15 -3 11 -6 -8
-8 135 -150 148 -146 5 2 7 0 3 -4 -4 -4 5 -19 20 -33 72 -68 174 -155 223
-191 30 -22 69 -52 88 -67 19 -16 39 -27 44 -25 5 1 6 -2 3 -7 -4 -5 11 -20
31 -32 21 -13 40 -27 42 -32 3 -8 38 -24 55 -25 5 0 12 -4 15 -9 13 -18 79
-62 85 -56 3 4 6 2 6 -4 0 -8 42 -35 60 -37 3 -1 22 -9 44 -20 43 -20 79 -26
96 -16 21 13 14 205 -9 288 -5 18 -10 33 -9 35 0 1 -8 29 -17 62 -26 88 -124
265 -147 265 -5 0 -7 4 -4 9 9 14 -154 163 -229 208 -111 67 -217 107 -345
129 -42 7 -229 12 -235 6z"/>
<path d="M4137 4023 c-1 -1 -16 -4 -32 -7 -17 -3 -43 -8 -59 -12 -88 -19 -268
-127 -248 -149 4 -5 2 -5 -5 -2 -21 13 -138 -162 -168 -252 -36 -110 -50 -293
-32 -410 12 -73 43 -173 70 -226 17 -33 32 -62 32 -65 8 -28 38 -80 46 -80 5
0 8 -4 5 -9 -3 -5 8 -26 25 -47 52 -66 167 -183 173 -177 3 4 6 -1 6 -9 0 -13
14 -24 40 -31 3 0 13 -8 23 -17 27 -26 172 -100 229 -116 125 -38 268 -46 363
-23 61 15 155 53 155 62 0 5 4 6 10 2 5 -3 18 3 29 14 11 11 21 17 23 15 9 -9
127 114 166 174 40 60 98 199 87 210 -2 3 0 11 6 19 6 7 9 13 6 13 -3 0 -1 17
4 38 9 37 12 196 4 242 -15 89 -38 180 -47 180 -5 0 -7 4 -3 9 3 5 -7 36 -21
68 -15 32 -26 61 -26 66 1 4 -3 7 -8 7 -6 0 -10 6 -10 13 0 17 -87 146 -122
180 -15 15 -28 31 -28 37 0 5 -6 13 -14 17 -7 4 -34 26 -59 48 -122 109 -280
186 -427 211 -41 7 -188 13 -193 7z"/>
<path d="M2422 3975 c-98 -25 -212 -72 -212 -87 0 -5 -4 -7 -9 -4 -4 3 -21 -6
-37 -19 -16 -14 -35 -25 -41 -25 -7 0 -13 -7 -13 -16 0 -8 -4 -13 -9 -10 -11
7 -142 -114 -135 -125 3 -5 1 -8 -4 -7 -14 4 -93 -103 -85 -115 3 -6 2 -7 -4
-4 -9 5 -38 -41 -33 -52 1 -2 -2 -7 -7 -10 -27 -18 -98 -217 -110 -305 -8 -63
-7 -237 2 -291 14 -83 58 -192 107 -267 28 -42 55 -75 59 -73 4 3 9 -3 11 -13
11 -41 167 -139 280 -176 114 -37 336 -39 403 -3 11 6 20 9 20 8 0 -8 134 49
167 71 14 10 29 18 33 18 5 0 82 57 95 70 3 3 17 15 33 27 39 30 177 195 171
205 -3 4 -1 8 4 8 5 0 15 12 22 28 8 15 19 34 26 42 11 15 62 140 70 170 28
115 36 173 36 280 1 115 -11 180 -50 270 -9 19 -17 40 -18 47 -13 71 -203 283
-253 283 -6 0 -11 5 -11 10 0 6 -5 10 -11 10 -5 0 -34 11 -62 24 -83 37 -135
48 -242 51 -79 2 -121 -2 -193 -20z"/>
<path d="M5418 3573 c-10 -2 -18 -9 -18 -14 0 -6 -4 -8 -8 -5 -11 7 -45 -72
-57 -132 -29 -154 -25 -363 11 -577 3 -16 8 -42 10 -57 12 -81 34 -191 41
-208 4 -8 8 -19 9 -25 1 -5 3 -13 4 -17 1 -5 3 -11 4 -15 11 -51 62 -181 75
-191 9 -7 15 -16 15 -20 -3 -13 36 -81 50 -89 8 -4 15 -12 14 -17 0 -16 55
-46 67 -36 7 6 14 8 17 5 8 -8 124 127 127 147 1 4 12 19 26 34 13 14 24 29
23 33 -1 3 10 31 24 61 32 68 59 150 65 198 8 54 8 262 1 297 -3 17 -9 47 -13
68 -4 20 -11 37 -17 37 -5 0 -7 4 -4 8 8 13 -51 162 -64 162 -4 0 -11 11 -14
25 -4 14 -11 25 -16 25 -6 0 -10 5 -10 11 0 14 -80 115 -81 103 0 -5 -4 -1 -8
9 -4 10 -11 19 -16 20 -5 1 -25 19 -45 39 -19 21 -39 38 -43 38 -4 0 -16 8
-27 18 -17 16 -116 74 -122 71 -2 -1 -11 -3 -20 -6z"/>
<path d="M1282 3524 c-73 -30 -291 -232 -276 -255 3 -5 1 -9 -4 -9 -11 0 -40
-41 -44 -62 -2 -7 -6 -15 -9 -18 -16 -12 -76 -175 -84 -226 -2 -16 -7 -44 -10
-62 -12 -64 -11 -168 2 -250 13 -80 55 -220 71 -231 4 -4 8 -13 10 -21 5 -23
69 -125 108 -172 49 -59 88 -80 123 -65 37 16 62 38 54 50 -3 6 -1 7 5 3 12
-7 38 39 33 57 -1 5 3 6 9 2 10 -6 46 61 42 78 -1 4 2 7 7 7 5 0 12 17 16 37
4 21 13 50 21 65 8 16 12 33 9 38 -3 6 -2 10 2 10 8 0 37 107 47 170 2 14 7
36 10 50 5 25 11 56 23 135 9 56 9 378 0 445 -3 30 -12 73 -19 95 -6 22 -12
43 -12 47 -1 3 -11 18 -23 32 -13 15 -23 30 -23 35 0 20 -56 29 -88 15z"/>
<path d="M3368 2495 c-2 -2 -27 -6 -56 -9 -66 -7 -219 -59 -292 -99 -104 -57
-214 -154 -265 -232 -69 -108 -111 -204 -123 -284 -8 -52 -8 -220 0 -261 23
-118 121 -318 157 -319 8 -1 12 -4 9 -7 -7 -7 75 -94 88 -94 5 0 15 -9 22 -20
7 -11 19 -20 27 -20 8 0 15 -3 15 -7 0 -5 10 -13 23 -19 95 -49 130 -64 183
-82 34 -12 83 -24 110 -28 27 -3 58 -8 69 -10 44 -9 181 -4 245 10 14 3 38 8
54 11 81 17 316 130 316 153 0 4 14 16 30 26 17 9 28 22 24 27 -3 5 0 8 8 7 7
-2 12 3 10 10 -1 8 1 11 6 8 10 -6 22 7 78 84 41 57 47 67 88 161 21 50 27 74
43 169 23 138 -17 322 -97 445 -11 17 -23 37 -27 45 -13 27 -77 97 -123 134
-127 102 -172 125 -321 167 -83 23 -139 32 -206 34 -51 1 -94 1 -95 0z"/>
<path d="M5178 2204 c-2 -2 -22 -6 -44 -10 -21 -3 -41 -10 -42 -15 -2 -5 -7
-7 -12 -4 -9 6 -152 -69 -189 -99 -14 -12 -43 -38 -64 -58 -21 -20 -41 -37
-45 -38 -33 -6 -240 -249 -225 -264 4 -3 2 -6 -4 -6 -9 0 -48 -55 -55 -78 -1
-4 -10 -16 -20 -26 -10 -11 -18 -25 -18 -32 0 -6 -6 -17 -13 -23 -11 -9 -70
-142 -72 -161 0 -3 -4 -10 -8 -16 -11 -19 -47 -176 -41 -186 3 -4 1 -8 -4 -8
-9 0 -8 -195 1 -235 21 -86 72 -154 139 -187 30 -15 63 -27 74 -28 119 -3 167
0 239 16 17 3 36 7 43 7 6 0 12 4 12 9 0 5 4 7 9 4 21 -14 251 88 298 131 13
13 27 23 31 23 32 0 249 241 236 262 -4 6 -3 8 3 5 13 -8 107 193 117 253 3
14 5 25 6 25 2 0 8 26 16 65 12 56 10 287 -3 340 -7 30 -16 66 -19 80 -3 14
-8 37 -11 53 -3 15 -9 27 -12 27 -4 0 -8 6 -8 13 0 32 -92 137 -125 143 -5 1
-9 2 -10 4 -15 11 -171 24 -180 14z"/>
<path d="M1520 2102 c-14 -2 -32 -6 -40 -9 -8 -4 -17 -7 -20 -7 -21 -6 -60
-34 -89 -64 -67 -72 -90 -163 -86 -350 2 -75 6 -148 10 -162 3 -14 8 -35 11
-47 2 -12 9 -35 15 -50 6 -16 12 -36 15 -47 4 -20 74 -168 83 -176 3 -3 12
-17 20 -32 22 -43 169 -208 186 -208 4 0 15 -8 24 -17 21 -24 78 -63 90 -63 5
0 11 -4 13 -8 8 -20 222 -108 286 -118 20 -3 51 -9 67 -13 52 -13 167 -4 216
17 25 11 58 35 73 53 15 19 34 42 42 52 22 27 35 66 41 122 10 99 9 151 -3
193 -7 23 -12 45 -12 47 0 3 -3 18 -6 33 -4 15 -8 38 -11 51 -8 41 -105 232
-161 316 -29 44 -77 105 -106 136 -29 31 -62 67 -74 80 -18 22 -78 76 -133
122 -12 9 -26 17 -31 17 -6 0 -10 4 -10 9 0 5 -8 11 -17 14 -21 7 -76 39 -83
49 -3 3 -41 18 -85 31 -75 24 -167 36 -225 29z"/>
<path d="M3368 755 c-2 -1 -43 -5 -93 -8 -49 -4 -101 -9 -115 -12 -14 -3 -38
-8 -55 -10 -44 -6 -87 -15 -110 -22 -11 -4 -22 -7 -25 -8 -23 -2 -90 -30 -90
-37 0 -5 -4 -6 -10 -3 -5 3 -16 3 -22 -2 -7 -4 -18 -8 -23 -9 -15 -2 -96 -55
-132 -85 -34 -29 -52 -58 -59 -97 -5 -27 13 -82 27 -82 5 0 9 -6 9 -13 0 -22
131 -145 215 -202 80 -54 208 -115 249 -119 12 -1 26 -5 32 -9 45 -27 259 -40
384 -23 93 13 255 69 312 108 14 10 31 18 37 18 6 0 11 3 11 8 0 4 15 15 33
25 46 25 98 73 89 82 -4 5 -2 5 4 2 12 -7 98 84 142 149 28 41 32 103 9 138
-28 42 -100 91 -172 118 -100 37 -165 57 -205 62 -19 3 -51 7 -70 10 -78 13
-141 18 -252 21 -64 1 -118 1 -120 0z"/>
</g>
</svg>
